<svg width="611" height="994" viewBox="0 0 611 994" fill="none" xmlns="http://www.w3.org/2000/svg">
<g opacity="0.1">
<path d="M297.246 109.627C279.414 89.7159 261.405 69.0908 243.983 48.6707C239.274 42.9534 234.857 36.523 230.263 29.3788C229.439 27.9501 228.32 26.4189 227.319 25.0919L225.735 26.0064C226.854 27.5376 227.678 28.9662 228.797 30.4974C233.391 37.6417 237.926 44.2761 242.635 49.9934C260.056 70.4135 277.89 91.1402 296.016 111.154C300.901 116.77 309.899 123.82 320.545 132.097C344.777 151.306 378.008 177.566 381.516 201.12C382.763 208.564 380.838 215.391 375.916 221.498C369.353 229.641 356.789 232.269 344.578 234.693C336.593 236.309 329.254 237.825 323.211 240.77C296.279 254.686 275.634 270.144 259.986 288.158C227.517 325.409 211.429 391.844 245.525 441.552C252.886 452.269 262.301 462.073 271.481 471.468C287.721 488.216 303.078 503.841 307.934 525.258C313.086 548.408 303.435 570.307 292.317 592.51L166.448 843.97L169.616 842.141L294.198 593.329C305.55 570.719 315.259 548.514 309.929 524.65C305.19 502.622 288.774 485.976 273.063 469.738C264.002 460.547 254.587 450.743 247.344 440.23C213.895 391.237 229.926 325.923 261.808 289.283C277.28 271.37 297.867 256.219 324.623 242.404C330.197 239.458 337.83 238.045 345.52 236.326C357.908 233.8 370.765 231.275 377.738 222.623C382.895 216.108 384.937 208.67 383.63 200.716C379.826 176.244 346.184 149.678 321.833 130.264C311.012 122.089 302.013 115.039 297.246 109.627Z" fill="white"/>
<path d="M241.282 145.204C227.336 130.397 213.094 114.672 197.616 97.2118C193.614 92.7191 189.905 87.5133 185.901 82.205C180.19 74.3451 174.243 66.077 167.419 59.948L165.659 60.9642C172.777 67.1957 178.606 75.2597 184.435 83.3237C188.38 88.9376 192.266 94.0418 196.268 98.5345C211.746 115.995 226.164 131.618 239.934 146.527C244.348 151.326 251.994 157.253 260.874 164.099C285.87 183.412 319.865 209.775 308.981 231.57C305.646 238.394 298.134 241.642 290.153 244.89C288.275 245.702 286.573 246.412 284.695 247.224C281.409 248.849 278.827 250.068 276.775 251.797C262.815 261.761 243.577 275.59 228.807 292.281C222.829 298.998 217.674 306.328 213.225 314.068C195.019 346.349 191.148 381.512 203.178 408.038C206.834 415.997 211.84 423.447 216.61 430.49C225.149 443.248 233.393 455.088 234.421 471.095C235.687 489.141 226.205 506.861 217.247 521.83C200.619 549.935 180.015 587.411 165.816 627.448C162.019 638.348 159.455 649.353 156.949 660.052C154.909 668.306 152.928 677.069 150.359 685.627C148.083 693.472 144.574 701.213 141.122 708.649C138.197 714.964 135.39 721.483 133.053 728.003C130.95 734.115 129.61 740.331 128.329 746.241C125.65 758.673 123.146 770.188 114.356 780.977C106.562 790.647 99.4163 801.032 91.5692 813.455C86.1234 822.313 80.9134 831.58 75.2932 841.356L72.1907 846.957C61.5364 865.899 50.9298 878.826 39.0226 887.061C27.0571 895.602 12.383 900.264 -1.70498 904.316L-4.99241 905.126C-17.9065 908.772 -30.1166 912.011 -40.4398 919.332C-46.9505 923.907 -52.1666 929.912 -57.3826 935.917C-63.771 943.143 -70.3354 950.471 -79.1357 955.552C-90.694 961.953 -100.971 962.444 -111.722 960.487L-110.426 962.732C-99.7926 964.485 -89.6334 963.79 -78.0752 957.389C-68.9811 952.41 -62.3584 944.777 -55.97 937.551C-50.8122 931.852 -45.5961 925.847 -39.3792 921.169C-29.4081 914.052 -17.3158 910.608 -4.57776 907.063L-1.29033 906.254C12.7976 902.202 27.6478 897.438 39.9653 888.694C52.1067 880.051 62.7133 867.124 73.5436 848.081L76.646 842.48C82.2663 832.704 87.4763 823.437 92.9221 814.578C100.593 802.258 107.857 792.077 115.651 782.407C124.675 771.21 127.237 759.39 129.916 746.958C131.197 741.048 132.537 734.832 134.582 729.025C136.743 722.607 139.726 715.986 142.475 709.773C145.926 702.337 149.436 694.596 151.77 686.445C154.339 677.887 156.437 669.328 158.36 660.87C160.866 650.171 163.372 639.472 167.169 628.571C181.191 588.637 202.09 551.263 218.542 523.259C227.558 507.985 237.098 489.959 235.948 471.302C234.861 454.785 226.146 442.129 217.724 429.575C212.954 422.532 208.066 415.285 204.41 407.327C192.734 381.413 196.606 347.066 214.578 315.192C218.851 307.554 223.948 300.529 229.926 293.812C244.814 277.325 263.7 263.7 277.66 253.735C279.83 252.21 282.294 250.788 285.404 249.264C287.282 248.452 288.984 247.742 290.861 246.93C299.019 243.581 306.707 240.231 310.452 232.898C322.097 209.575 287.161 182.395 261.753 162.775C253.106 155.522 245.578 149.799 241.282 145.204Z" fill="white"/>
<path d="M185.201 180.577C175.198 170.568 164.548 159.845 150.955 145.65C147.66 142.382 144.6 138.706 141.421 134.827C134.005 126.046 126.353 116.858 116.359 111.742C107.953 107.343 99.9638 106.513 93.1503 106.093C90.8011 106.089 88.5696 106.288 86.632 106.591L81.8799 109.334C83.1716 109.133 84.2873 109.033 85.579 108.831C88.1624 108.428 90.5698 108.127 93.3889 108.132C99.9086 108.45 107.898 109.28 115.716 113.474C125.24 118.589 132.656 127.369 140.073 136.15C143.133 139.825 146.606 143.807 149.725 147.177C163.317 161.372 173.967 172.095 183.97 182.103C188.03 186.29 194.499 190.992 201.909 196.51C220.023 209.999 242.547 226.657 242.282 242.05C242.118 248.675 239.13 252.85 234.501 258.244L234.325 258.345C233.094 259.872 231.687 261.501 230.457 263.028C225.359 269.237 218.851 275.443 211.933 282.158C207.126 286.839 202.142 291.621 197.629 296.404C192.529 301.797 188.427 306.887 184.971 311.876C169.625 334.07 161.032 356.176 160.653 373.811C160.428 379.111 161.024 384.209 161.679 389.002C162.517 397.77 163.59 406.131 160.848 416.422C157.874 427.936 150.143 439.747 142.235 450.844C117.104 485.763 101.25 519.68 94.5541 551.575C92.284 562.683 92.7151 573.591 93.0283 584.296C93.3371 592.553 93.5878 601.117 92.7227 609.78C91.8561 617.628 88.8745 625.064 85.8928 632.5C83.3199 638.612 80.8647 644.928 79.761 651.552C78.5394 657.972 79.0794 664.191 79.4434 670.512C80.3458 682.237 81.1886 693.452 70.0466 702.606C59.4907 711.15 51.1662 719.494 43.7247 728.96C36.7516 737.613 30.5452 747.999 24.5774 760.425C16.2112 778.045 8.54305 791.997 -1.71451 803.09C-11.3859 813.572 -22.8248 820.992 -36.4414 825.861C-42.8388 828.193 -49.7075 829.71 -56.2824 831.329C-62.3293 832.643 -68.6103 834.364 -74.3036 836.291C-91.2077 841.969 -104.699 851.118 -117.955 860.676C-121.415 863.219 -124.7 865.659 -127.808 867.998C-137.368 875.422 -145.227 881.32 -155.617 884.054L-154.556 885.89C-143.99 883.056 -135.955 877.056 -126.571 869.733C-123.463 867.394 -120.355 865.055 -116.718 862.412C-103.463 852.854 -90.3232 843.907 -73.4191 838.229C-67.7258 836.303 -61.7968 834.785 -55.3979 833.267C-48.823 831.648 -41.9543 830.132 -35.3809 827.697C-21.2944 822.83 -9.79735 815.104 0.0500221 804.52C10.3658 793.122 18.2099 779.068 26.5761 761.448C32.3679 749.124 38.5162 739.043 45.4893 730.391C52.8726 721.23 61.021 712.988 71.5769 704.444C83.599 694.782 82.6965 683.057 81.7344 670.822C81.3123 664.807 80.7723 658.588 81.9357 652.473C82.9813 646.155 85.3782 640.145 88.0094 633.727C90.991 626.291 93.8548 618.651 94.7796 610.497C95.8207 601.732 95.57 593.169 95.1434 584.707C94.772 574.309 94.5169 563.299 96.7288 552.497C103.248 520.703 119.162 487.296 144.117 452.478C152.202 441.28 159.933 429.469 163.023 417.344C165.705 406.543 164.749 397.57 163.852 389.108C163.374 384.214 162.719 379.421 162.944 374.121C163.206 357.097 171.975 334.89 186.912 313.204C190.192 308.317 194.412 303.432 199.335 298.14C203.849 293.357 208.832 288.575 213.639 283.895C220.557 277.179 227.065 270.973 232.339 264.662C233.746 263.034 234.976 261.507 236.207 259.98L236.383 259.878C241.071 254.178 244.587 249.699 244.691 242.564C245.013 226.05 221.959 208.882 203.551 195.29C195.612 189.261 189.319 184.458 185.201 180.577Z" fill="white"/>
<path d="M129.118 215.947C114.647 203.076 100.293 190.409 85.9398 177.742C75.5867 168.753 65.4096 159.661 55.0565 150.671C48.6442 144.849 42.4093 139.741 36.1178 135.753L34.3578 136.77C40.9431 140.859 47.2958 146.172 54.002 152.097C64.1791 161.188 74.5322 170.178 84.8853 179.168C99.2388 191.835 113.71 204.706 128.064 217.373C132.77 221.459 139.473 225.753 146.47 230.149C163.522 240.986 182.69 253.05 184.305 269.262C185.623 282.924 169.675 297.574 160.352 306.222C159.18 307.443 158.066 308.359 156.951 309.274C144.112 321.585 129.154 331.854 114.843 342.022C98.419 353.409 81.5851 365.305 67.6926 379.857C41.8421 407.028 25.8137 441.862 23.9375 475.601C23.1947 486.915 26.6209 497.727 29.7532 508.436C32.2353 516.8 34.8351 525.368 35.5556 533.932C36.0986 541.782 33.5868 549.219 31.1332 556.351C29.03 562.463 26.9269 568.576 26.7629 575.202C26.5988 581.827 29.0779 588.56 31.3213 594.884C35.8065 606.718 39.525 616.817 25.7369 624.233C3.96878 635.712 -12.1045 646.081 -22.978 673.585C-24.0295 676.641 -25.3749 679.595 -26.4265 682.651C-36.6556 709.239 -47.0593 736.744 -71.1199 747.097C-82.5633 752.071 -96.0711 752.25 -109.167 752.736C-126.492 753.214 -144.58 753.589 -157.303 765.288C-164.163 771.698 -168.903 780.966 -173.233 789.725C-178.851 801.132 -184.352 811.927 -194.033 816.701L-192.973 818.538C-182.763 813.459 -176.97 801.951 -171.411 790.85C-167.081 782.091 -162.516 772.924 -155.715 766.82C-143.402 755.63 -126.547 755.151 -108.752 754.674C-95.5386 754.392 -81.8548 754.112 -70.0594 748.934C-45.2947 738.174 -34.6569 710.262 -24.3696 683.368C-23.318 680.312 -21.9726 677.358 -20.9211 674.302C-10.2817 647.205 5.73333 637.143 27.0316 625.663C42.1696 617.739 37.5665 605.702 33.3751 593.971C30.9558 587.748 28.7124 581.424 28.8183 575.103C29.042 568.987 30.9691 562.976 33.0722 556.864C35.7018 549.631 38.0958 541.99 37.4932 533.63C36.8309 524.76 34.231 516.192 31.6311 507.624C28.4406 497.22 25.3083 486.511 25.8169 475.604C27.635 442.171 43.4292 407.744 69.0455 380.981C82.762 366.53 99.7138 354.838 116.138 343.451C130.743 333.386 145.583 322.913 158.422 310.602C159.536 309.687 160.533 308.567 161.823 307.55C172.084 298.088 187.679 283.642 186.419 268.858C184.86 251.525 164.986 239.052 147.641 228.112C140.41 224.123 133.706 219.83 129.118 215.947Z" fill="white"/>
<path d="M-4.8872 226.101C-10.8282 221.095 -17.2987 215.578 -24.8267 209.855C-32.7083 203.521 -42.059 196.674 -51.9899 193.699C-53.929 193.186 -55.6921 192.571 -57.5133 192.262C-58.8646 191.953 -60.0982 191.849 -61.5077 191.847L-64.6759 193.676C-62.3266 193.68 -59.8595 193.888 -57.7445 194.3C-55.9233 194.609 -54.278 195.02 -52.515 195.635C-42.76 198.711 -33.7031 205.456 -25.9394 211.586C-18.4114 217.309 -11.9409 222.826 -5.9999 227.832L-4.76486 228.751C9.353 241.01 24.0004 253.78 32.5427 268.169C38.6702 278.782 41.7965 286.229 46.5144 296.84C49.5812 303.777 52.2392 312.039 50.6701 321.109C49.5649 326.918 46.17 333.232 40.4842 339.236C36.5568 343.408 32.5117 347.377 28.4665 351.345C24.8316 354.804 21.5486 358.06 18.7937 361.011C13.2838 366.914 7.94993 372.715 3.02774 378.822C-2.30464 385.438 -4.34809 392.061 -5.92467 397.053C-6.27519 398.072 -6.44968 398.989 -6.91803 399.803C-8.02776 403.165 -9.19866 405.202 -10.5455 407.34C-11.0139 408.155 -11.6582 409.071 -12.0088 410.09C-12.9455 411.719 -13.1767 413.758 -13.5839 415.898C-14.0492 418.344 -14.6309 421.401 -15.7988 425.068C-18.1361 431.588 -21.3534 438.616 -24.5111 446.154C-32.1732 463.368 -40.5946 482.925 -43.6702 503.206C-44.5398 509.422 -44.1176 515.438 -43.6388 520.332C-43.4583 522.677 -43.1018 524.92 -42.8035 527.469C-42.0278 534.097 -41.194 540.418 -41.7697 546.738C-42.2291 552.445 -44.9796 557.843 -47.6719 562.935C-49.7198 567.111 -51.9437 571.388 -52.9341 575.77C-53.9827 580.457 -53.0937 584.843 -52.3807 589.329C-50.9562 597.487 -49.7689 604.421 -60.6246 609.6C-78.346 617.927 -92.7203 625.954 -103.021 645.507C-105.011 649.377 -107.059 653.553 -109.225 657.525C-113.555 666.284 -118.119 675.45 -123.272 683.596C-129.538 693.473 -135.516 700.19 -142.615 704.56C-150.476 709.643 -159.516 711.869 -168.204 713.892C-180.18 716.724 -192.508 719.76 -201.534 730.141C-203.702 732.482 -205.694 735.536 -207.801 739.202C-209.499 742.359 -211.196 745.516 -212.6 748.776C-215.877 755.294 -218.802 761.609 -223.021 766.494L-221.961 768.331C-217.389 763.242 -214.23 756.52 -210.953 750.002C-209.432 746.947 -207.852 743.585 -206.037 740.633C-203.929 736.967 -201.996 734.218 -200.121 731.775C-191.33 721.801 -179.824 718.967 -167.672 716.033C-158.807 713.909 -149.591 711.581 -141.554 706.397C-134.398 701.721 -128.126 695.106 -121.801 684.924C-116.472 676.676 -111.908 667.51 -107.696 658.547C-105.706 654.677 -103.658 650.501 -101.668 646.631C-91.6016 627.485 -77.5793 619.661 -60.0339 611.436C-48.1803 605.953 -49.5466 597.49 -50.9711 589.332C-51.7423 585.151 -52.3375 580.868 -51.5231 576.588C-50.5908 572.512 -48.5429 568.337 -46.495 564.161C-43.7445 558.763 -40.9941 553.365 -40.3005 547.25C-39.6666 540.625 -40.4423 533.997 -41.3939 527.472C-41.7504 525.228 -41.9309 522.883 -42.1114 520.538C-42.5902 515.644 -43.0705 509.935 -42.0831 503.922C-39.2418 484.049 -30.6444 464.39 -23.1582 447.278C-19.8827 439.944 -16.7832 432.712 -14.4459 426.192C-13.102 422.423 -12.5204 419.366 -12.1728 416.716C-11.7656 414.576 -11.4166 412.742 -10.8319 411.316C-10.3635 410.501 -9.89519 409.686 -9.36866 408.566C-8.02178 406.428 -6.96873 404.187 -5.683 400.723C-5.39065 400.01 -5.04015 398.991 -4.80747 397.769C-3.28906 393.082 -1.42162 386.561 3.85258 380.251C8.77478 374.143 14.1087 368.342 19.6185 362.44C22.3735 359.489 25.6564 356.233 29.2914 352.773C33.3366 348.805 37.5577 344.735 41.309 340.665C47.0531 334.355 50.7999 327.838 51.9633 321.723C53.7666 312.246 50.8729 303.576 47.7465 296.128C43.2046 285.416 39.7844 277.866 33.6569 267.253C25.0549 252.354 10.2315 239.686 -4.122 227.02L-4.8872 226.101Z" fill="white"/>
<path d="M-104.885 269.139C-110.471 265.561 -118.761 260.551 -127.929 257.68C-129.398 257.167 -131.043 256.756 -132.394 256.448C-135.097 255.832 -137.858 255.521 -140.619 255.21C-143.85 254.898 -147.198 254.382 -150.489 253.561C-154.367 252.534 -157.835 250.999 -161.127 249.361L-163.063 250.479C-159.241 252.627 -155.186 254.367 -150.72 255.599C-147.43 256.421 -143.905 256.835 -140.556 257.351C-137.971 257.763 -135.211 258.074 -132.508 258.691C-131.156 258.999 -129.511 259.41 -128.16 259.718C-119.286 262.487 -111.114 267.293 -105.704 270.973C-99.2947 275.164 -93.7669 279.048 -89.0609 283.134C-78.5318 292.022 -65.4685 305.706 -63.1535 319.065C-61.7275 328.038 -65.2416 333.333 -69.1078 338.83C-71.099 341.885 -73.3841 344.837 -74.728 348.606C-75.7214 351.357 -76.5388 354.006 -77.5904 357.062C-79.1669 362.054 -80.8598 367.658 -83.4343 372.954C-86.6531 379.167 -91.2233 385.071 -96.8525 389.954C-105.12 397.176 -113.74 404.602 -120.011 412.032C-125.871 418.953 -130.498 425.979 -134.185 433.006C-139.394 443.088 -134.322 454.311 -128.794 458.195C-124.502 461.159 -120.449 461.268 -116.514 461.174C-115.575 461.176 -114.635 461.177 -113.695 461.179C-107.175 461.497 -102.707 464.359 -99.5251 469.87C-98.909 485.57 -106.027 511.45 -111.396 529.789C-112.388 533.355 -113.146 536.514 -113.904 539.673L-114.545 542.22C-115.944 547.926 -116.991 553.429 -119.507 558.419C-121.321 562.188 -124.486 565.648 -127.593 568.803C-129.762 571.143 -131.697 573.077 -133.396 575.418C-135.094 577.76 -136.03 580.204 -136.789 582.548C-138.601 587.132 -140.003 591.207 -147.926 594.148C-161.895 599.22 -174.336 604.498 -183.829 616.509C-189.395 623.533 -195.194 631.78 -202.397 643.286C-206.496 650.006 -210.361 656.319 -214.756 661.306C-218.976 666.192 -223.491 670.159 -227.948 673.821C-234.457 679.212 -241.025 684.908 -246.704 694.174C-248.286 696.72 -249.573 699.368 -250.626 701.609C-251.152 702.729 -251.679 703.85 -252.205 704.97C-253.258 707.211 -254.253 709.146 -255.306 711.387L-254.128 713.428C-252.899 711.085 -251.788 708.539 -250.559 706.196C-250.032 705.076 -249.506 703.956 -248.979 702.835C-247.926 700.594 -246.639 697.946 -245.234 695.502C-239.906 686.439 -233.573 681.15 -226.887 675.658C-222.431 671.996 -217.916 668.029 -213.52 663.042C-209.066 657.749 -205.025 651.334 -200.927 644.614C-193.724 633.107 -188.101 624.963 -182.534 617.939C-173.1 606.233 -161.363 601.361 -147.218 596.189C-138.473 593.044 -136.954 588.358 -135.084 583.468C-134.207 581.329 -133.448 578.986 -131.925 576.746C-130.402 574.506 -128.467 572.573 -126.475 570.334C-123.309 566.874 -120.027 563.617 -118.155 559.543C-115.58 554.247 -114.357 548.643 -113.076 542.732L-112.434 540.185C-111.677 537.026 -111.095 533.969 -110.103 530.403C-104.558 511.962 -97.3234 485.471 -98.0574 469.567L-97.9992 469.261L-98.117 469.057C-101.594 462.628 -106.768 459.357 -114.052 458.936C-114.991 458.934 -115.931 458.932 -116.871 458.93C-120.63 458.924 -124.388 458.917 -128.093 456.157C-132.916 452.683 -137.456 442.786 -132.892 433.62C-129.381 426.694 -124.812 419.975 -118.952 413.053C-112.681 405.623 -104.061 398.197 -95.9695 391.076C-90.1643 386.092 -85.4181 380.086 -82.1411 373.568C-79.3906 368.17 -77.6977 362.567 -76.1211 357.574C-75.2456 354.62 -74.4282 351.971 -73.317 349.424C-72.0313 345.961 -69.864 342.805 -67.9309 340.056C-64.0066 334.252 -60.0823 328.449 -61.6858 318.762C-64.0023 304.588 -77.3594 290.801 -88.3002 281.606C-92.8302 277.419 -98.2998 273.229 -104.885 269.139Z" fill="white"/>
<g opacity="0.4">
<path opacity="0.4" d="M264.809 3.44755C274.599 25.2808 283.332 47.7237 289.482 70.5697C305.095 129.316 301.376 183.44 278.661 222.951C264.376 247.798 242.74 266.821 221.747 284.928C211.779 293.677 201.283 302.73 191.786 312.295C155.441 349.335 140.898 393.652 153.359 431.087C157.907 445.061 166.036 458.328 174.105 471.086C186.888 492.007 199.258 511.806 196.479 533.82C194.108 553.694 179.689 569.367 165.856 584.428C148.037 603.968 131.039 622.49 140.777 647.891C146.088 661.969 158.145 671.064 169.907 680.056C179.2 687.209 188.786 694.464 195.088 704.16C216.645 737.432 191.64 777.449 163.552 801.557L162.966 802.168C139.921 822.004 112.185 845.909 108.953 876.893L111.065 875.674C115.122 846.118 142.096 822.926 164.378 803.802L164.965 803.191C193.463 778.574 218.818 737.538 196.672 703.246C190.135 693.142 180.43 685.682 170.962 678.631C159.081 669.434 147.848 660.953 142.714 647.589C133.566 623.208 149.978 605.297 167.562 586.165C181.629 570.695 196.224 554.922 198.536 534.538C201.313 511.708 188.826 491.705 175.807 470.375C168.031 457.72 159.902 444.453 155.296 430.785C143.307 394.166 157.439 350.358 193.492 314.031C202.989 304.466 213.309 295.514 223.453 286.664C244.504 268.252 266.317 249.127 280.778 224.178C303.727 184.259 307.562 129.524 291.713 70.3699C285.504 47.0141 276.771 24.5712 266.863 2.53382L264.927 3.65165L264.809 3.44755Z" fill="white"/>
</g>
<g opacity="0.4">
<path opacity="0.4" d="M145.302 72.446L143.718 73.3606C145.661 76.3205 147.487 79.0762 149.313 81.8319C152.611 86.7311 156.202 91.7328 159.266 97.0393C170.814 117.041 178.135 137.85 181.227 158.652C187.472 201.58 184.433 241.433 172.335 273.726C171.107 276.884 169.88 280.042 168.358 283.097C159.585 302.858 147.692 319.248 136.268 334.824C129.707 343.783 122.911 353.149 116.997 362.822C113.074 369.441 109.445 376.163 106.404 383.089C94.6491 410.286 92.9951 437.093 101.614 460.963C105.745 472.184 112.284 483.104 118.764 493.513C129.132 510.658 139.029 526.987 138.944 544.725C138.914 560.525 131.068 573.763 123.633 586.492C116.666 598.406 109.991 609.607 109.545 622.655C109.203 628.567 110.33 634.176 112.513 639.99C116.761 650.6 124.88 658.158 132.881 665.513C140.588 672.765 147.765 679.506 151.658 688.688C162.924 715.111 140.822 736.58 126.628 746.952C117.185 753.765 106.037 759.657 95.3576 764.734C87.7878 768.288 76.6397 774.18 66.7297 782.623C45.5031 801.137 34.6863 827.52 36.3838 856.474C37.0491 866.975 39.2403 876.867 41.4896 886.454C43.3839 894.613 45.0426 902.363 45.7616 910.112C45.8809 911.132 45.9421 912.457 45.8854 913.578L47.6455 912.562C47.644 911.746 47.6425 910.931 47.465 910.217C46.746 902.468 44.9695 894.514 43.0751 886.355C40.9436 876.972 38.7525 867.08 38.029 856.885C36.2151 828.542 46.7396 802.872 67.6142 784.561C77.3482 776.22 88.3203 770.43 95.8901 766.876C106.57 761.798 117.836 756.11 127.337 748.992C142.059 738.315 164.747 716.236 152.95 688.486C148.821 678.896 141.114 671.644 133.525 664.597C125.818 657.345 117.699 649.786 113.805 639.789C111.563 634.28 110.555 628.875 110.956 623.473C111.462 610.935 117.96 599.836 124.869 588.227C132.539 575.091 140.385 561.853 140.531 545.441C140.556 527.194 130.07 509.845 119.938 493.108C113.634 482.596 107.037 471.982 103.023 460.965C94.5821 437.809 96.002 411.41 107.817 384.723C110.682 377.898 114.311 371.177 118.352 364.762C124.266 355.088 130.651 346.231 137.741 336.968C149.341 321.29 161.233 304.9 170.064 284.834C171.41 281.88 172.813 278.62 173.923 275.258C186.079 242.66 189.177 202.501 182.99 159.267C179.956 138.159 172.517 117.146 160.734 96.7362C157.552 91.2256 154.137 86.1223 150.663 81.3247C148.953 77.9575 147.128 75.2018 145.302 72.446Z" fill="white"/>
</g>
<g opacity="0.4">
<path opacity="0.4" d="M39.7583 167.668C35.8742 163.38 31.8141 159.193 28.3402 154.395C25.7493 150.721 23.7461 147.251 22.0949 143.578L20.5108 144.493C22.162 148.165 24.2831 151.839 26.8739 155.514C30.4657 160.516 34.5258 164.703 38.4099 168.991C42.47 173.178 46.4719 177.671 49.9459 182.468C64.7842 203.292 72.5763 224.917 72.9687 246.733C73.3805 279.151 66.3329 311.249 60.1519 335.5C59.5105 338.047 58.8691 340.595 58.0517 343.243C56.8853 347.727 55.719 352.21 54.5526 356.693C49.1278 376.969 44.5203 394.597 41.9116 413.247C41.1584 418.852 40.699 424.56 40.4156 430.166C39.224 452.897 42.1968 472.679 49.9814 490.227C53.697 498.695 58.646 507.267 63.5355 515.329C71.4886 528.698 78.9123 541.556 81.5211 555.017C83.775 567.05 82.3848 577.649 81.1707 588.147C79.721 598.236 78.6814 607.817 80.5802 618.422C81.411 623.113 82.652 627.295 84.5389 631.376C87.4878 638.109 91.8447 644.03 96.2598 649.645C101.911 656.995 107.269 664.242 108.929 672.809C113.968 698.201 88.6844 714.159 65.4381 720.233C58.3352 722.157 50.5849 723.366 43.1285 724.677C37.9617 725.483 32.9127 726.493 27.8637 727.504C14.1844 730.231 3.79707 734.595 -4.82424 741.206C-24.0611 755.85 -33.9412 780.603 -35.8682 818.725C-36.0934 824.026 -36.2604 829.02 -36.3096 834.219C-36.5184 848.491 -36.9047 862.048 -40.7007 873.764C-41.7522 876.82 -43.1558 880.08 -44.9114 883.543C-48.5985 890.57 -53.3447 896.576 -58.1506 902.072C-77.7245 925.074 -96.5452 942.471 -114.319 954.366L-113.258 956.203C-95.3087 944.207 -76.312 926.708 -56.738 903.705C-52.05 898.005 -46.9518 891.796 -43.2647 884.769C-41.3331 881.205 -39.9295 877.945 -38.9958 874.685C-35.1416 862.663 -34.7554 849.106 -34.4884 834.529C-34.3214 829.534 -34.2722 824.335 -33.9291 819.238C-32.1185 781.728 -22.3547 757.586 -3.46986 743.145C4.97544 736.636 15.0108 732.475 28.5141 729.849C33.563 728.839 38.9059 727.932 43.7789 727.023C51.2353 725.712 58.9855 724.503 66.0884 722.579C89.9805 716.404 116.026 699.734 110.751 673.118C109.031 664.042 103.497 656.896 97.7857 649.036C93.6645 643.524 89.4254 637.807 86.3005 631.175C84.4136 627.094 83.2904 623.116 82.5774 618.63C80.7964 608.229 82.0717 599.056 83.3455 589.068C84.7356 578.469 86.1839 567.564 83.8122 555.327C81.1437 541.356 73.1905 527.987 65.649 514.925C60.9356 506.761 55.9284 498.495 52.2128 490.027C44.8398 472.786 41.6329 453.411 42.9424 430.885C43.2258 425.278 43.6851 419.571 44.5562 414.169C46.9889 395.621 51.5963 377.993 57.0211 357.717C58.3053 353.438 59.4718 348.955 60.5203 344.267C61.1617 341.72 61.8031 339.173 62.6204 336.524C68.8014 312.273 75.9072 279.869 75.5536 247.146C75.3954 224.922 67.3676 202.889 52.2936 181.657C47.9963 176.247 43.8184 171.855 39.7583 167.668Z" fill="white"/>
</g>
<g opacity="0.4">
<path opacity="0.4" d="M-71.7304 253.807C-76.6123 249.822 -81.4943 245.838 -85.7319 240.937C-92.089 233.177 -95.3944 224.201 -94.7039 216.454C-94.5905 214.212 -94.0655 212.276 -93.3644 210.239L-95.8285 211.661C-96.1194 213.19 -96.5281 214.514 -96.5251 216.145C-97.332 224.503 -93.7909 233.888 -86.9043 242.158C-82.5488 247.263 -77.549 251.451 -72.6671 255.436C-67.903 259.217 -63.021 263.201 -58.9012 267.898C-39.5374 290.463 -31.45 313.006 -35.1103 334.713C-36.6197 344.292 -39.9504 353.563 -43.0468 362.426C-46.9025 373.632 -51.1103 385.042 -51.9097 397.477C-53.5637 424.285 -40.8315 449.589 -25.1579 477.55L51.2668 614.392C59.6928 629.393 66.5303 642.862 65.264 656.927C62.9656 684.651 31.5052 695.195 3.31132 693.512C-2.26869 693.196 -7.96654 692.676 -13.4884 692.054C-35.9277 689.77 -59.4246 687.28 -77.3742 699.276C-99.6062 714.017 -103.724 742.247 -108.015 772.209C-111.379 795.649 -114.917 820.007 -128.217 837.21C-136.303 847.593 -147.566 854.912 -158.419 861.722C-160.883 863.145 -163.229 864.772 -165.751 866.5L-164.691 868.337C-162.168 866.609 -159.822 864.982 -157.358 863.559C-146.329 856.648 -135.066 849.329 -126.629 838.742C-113.094 821.131 -109.556 796.774 -106.135 773.028C-101.784 743.576 -97.782 715.957 -76.1959 701.317C-58.7743 689.626 -35.5712 692.013 -13.4257 694.195C-7.90388 694.817 -2.20605 695.337 3.37396 695.653C32.3315 697.439 64.8479 686.285 67.203 657.44C68.4663 641.744 59.5093 625.417 52.8509 613.478L-23.5738 476.635C-39.1296 448.879 -51.744 423.778 -50.0885 397.786C-49.3472 385.657 -45.3155 374.349 -41.4598 363.143C-38.1873 354.178 -35.0327 345.009 -33.4651 335.124C-29.8063 312.602 -38.1294 289.65 -57.8467 266.473C-61.7905 261.674 -66.8484 257.791 -71.7304 253.807Z" fill="white"/>
</g>
<g opacity="0.4">
<path opacity="0.4" d="M-149.334 242.552C-148.612 251.932 -149.241 261.003 -151.751 269.256C-152.044 269.969 -152.218 270.886 -152.511 271.599C-153.854 275.368 -155.081 279.342 -154.837 283.828C-154.773 286.784 -154.063 289.64 -152.942 292.802C-151.584 296.372 -149.287 299.944 -146.638 303.313C-143.577 306.989 -139.813 310.258 -136.342 313.424C-132.577 316.693 -128.988 320.064 -125.81 323.944C-111.917 341.503 -106.129 358.843 -109.153 375.556C-110.431 383.097 -113.119 390.636 -115.866 397.665C-118.788 405.611 -121.886 413.658 -122.927 422.423C-125.357 442.603 -117.746 461.884 -109.017 481.88C-107.366 485.553 -105.714 489.226 -103.945 493.103C-95.4536 511.876 -85.6688 531.262 -76.4135 550.138C-70.5187 561.974 -64.2704 574.422 -58.5516 586.36C-54.0709 595.747 -48.5878 607.276 -50.2121 618.283C-53.4577 641.927 -82.3436 647.175 -94.6163 648.273C-97.0237 648.575 -99.549 648.672 -101.898 648.668C-104.423 648.765 -106.773 648.761 -109.298 648.858C-123.921 649.137 -139.015 649.415 -150.163 655.307C-154.329 657.44 -157.789 659.983 -160.778 663.341C-164.53 667.412 -167.692 672.503 -170.381 679.226C-174.24 688.801 -176.922 699.602 -179.838 710.81C-183.628 725.789 -187.534 741.378 -194.324 754.006C-197.718 760.321 -201.702 765.614 -206.158 770.091C-209.383 773.042 -212.843 775.584 -216.597 778.024L-215.537 779.86C-211.782 777.421 -207.97 774.675 -204.745 771.725C-200.114 767.146 -196.13 761.853 -192.677 755.233C-185.887 742.605 -181.923 726.709 -177.957 711.629C-175.041 700.421 -172.359 689.62 -168.676 680.147C-166.045 673.729 -163.059 668.74 -159.484 664.771C-156.553 661.718 -153.268 659.277 -149.278 657.246C-138.364 651.761 -123.565 651.38 -109.117 651.203C-106.592 651.106 -104.243 651.11 -101.718 651.013C-99.1925 650.916 -96.6672 650.818 -94.2598 650.517C-81.6351 649.215 -51.9273 643.765 -48.3312 619.102C-46.5906 607.484 -52.3093 595.546 -56.9079 585.955C-62.7445 573.814 -68.875 561.569 -74.8876 549.529C-84.2011 530.959 -93.8099 511.471 -102.302 492.698C-103.953 489.025 -105.722 485.148 -107.373 481.475C-116.042 461.989 -123.536 442.912 -121.223 423.344C-120.24 414.885 -117.142 406.837 -114.278 399.197C-111.648 391.964 -108.843 384.629 -107.506 376.782C-104.542 359.56 -110.214 341.608 -124.754 323.334C-128.05 319.25 -131.933 315.777 -135.521 312.406C-138.874 309.444 -142.345 306.277 -145.406 302.602C-147.937 299.437 -150.116 296.069 -151.356 292.703C-152.536 289.846 -153.128 287.195 -153.25 284.544C-153.258 280.466 -152.208 276.595 -151.04 272.927C-150.747 272.214 -150.573 271.297 -150.281 270.584C-147.654 261.72 -146.79 252.241 -147.69 242.147L-149.098 242.96L-149.334 242.552Z" fill="white"/>
</g>
</g>
</svg>
