<svg width="95" height="20" viewBox="0 0 95 20" fill="none" xmlns="http://www.w3.org/2000/svg">
<rect x="5" y="5" width="15" height="15" fill="black"/>
<rect width="15" height="15" fill="#E1033D"/>
<path d="M36.3205 4.14938H38.4445V15.8506H36.7418L30.1065 7.68465V15.8506H28V4.14938H29.6852L36.3205 12.2988V4.14938Z" fill="black"/>
<path d="M46.6258 16C45.4205 16 44.3731 15.7566 43.4837 15.2697C42.606 14.7828 41.9273 14.0858 41.4475 13.1784C40.9676 12.2711 40.7277 11.2089 40.7277 9.9917C40.7277 8.77455 40.9618 7.71784 41.4299 6.82158C41.9097 5.91425 42.5943 5.21715 43.4837 4.73029C44.3731 4.24343 45.4205 4 46.6258 4C47.8312 4 48.8727 4.24343 49.7504 4.73029C50.6398 5.21715 51.3185 5.91425 51.7866 6.82158C52.2664 7.71784 52.5063 8.77455 52.5063 9.9917C52.5063 11.2089 52.2664 12.2711 51.7866 13.1784C51.3068 14.0858 50.6222 14.7828 49.7328 15.2697C48.8552 15.7566 47.8195 16 46.6258 16ZM46.6258 14.2905C47.761 14.2905 48.6445 13.9198 49.2764 13.1784C49.9201 12.4371 50.2419 11.3748 50.2419 9.9917C50.2419 8.60858 49.9201 7.55187 49.2764 6.82158C48.6445 6.08022 47.761 5.70954 46.6258 5.70954C45.479 5.70954 44.5837 6.08022 43.9401 6.82158C43.3082 7.55187 42.9922 8.60858 42.9922 9.9917C42.9922 11.3748 43.3082 12.4371 43.9401 13.1784C44.5837 13.9198 45.479 14.2905 46.6258 14.2905Z" fill="black"/>
<path d="M65.1679 15.8506H62.7103L60.5863 12.1162C60.3874 11.7621 60.1416 11.5131 59.8491 11.3693C59.5565 11.2254 59.1879 11.1535 58.7432 11.1535H57.0229V15.8506H54.7936V4.14938H60.2703C61.6746 4.14938 62.7396 4.44813 63.4651 5.04564C64.2024 5.63209 64.571 6.48409 64.571 7.60166C64.571 8.49793 64.3019 9.23928 63.7635 9.82573C63.2369 10.4011 62.488 10.7773 61.5167 10.9544C62.172 11.1203 62.6986 11.5574 63.0965 12.2656L65.1679 15.8506ZM59.9544 9.51037C60.8087 9.51037 61.4347 9.361 61.8326 9.06224C62.2305 8.75242 62.4295 8.28216 62.4295 7.65145C62.4295 7.00968 62.2305 6.54495 61.8326 6.25726C61.4347 5.95851 60.8087 5.80913 59.9544 5.80913H57.0053V9.51037H59.9544Z" fill="black"/>
<path d="M66.9989 4.14938H71.5629C73.5875 4.14938 75.1556 4.6639 76.2673 5.69295C77.3908 6.71093 77.9525 8.14384 77.9525 9.9917C77.9525 11.8396 77.3908 13.278 76.2673 14.3071C75.1556 15.3361 73.5875 15.8506 71.5629 15.8506H66.9989V4.14938ZM71.4225 14.1079C74.2662 14.1079 75.6881 12.7358 75.6881 9.9917C75.6881 7.25864 74.2662 5.89212 71.4225 5.89212H69.2634V14.1079H71.4225Z" fill="black"/>
<path d="M80.2329 15.8506V4.14938H82.4973V15.8506H80.2329Z" fill="black"/>
<path d="M90.7871 16C89.57 16 88.5051 15.7566 87.5923 15.2697C86.6912 14.7718 85.9949 14.0692 85.5034 13.1618C85.0236 12.2545 84.7837 11.1978 84.7837 9.9917C84.7837 8.78562 85.0236 7.73444 85.5034 6.83817C85.9949 5.93084 86.6912 5.23375 87.5923 4.74689C88.5051 4.24896 89.57 4 90.7871 4C91.618 4 92.402 4.12171 93.1393 4.36515C93.8766 4.60858 94.4968 4.95159 95 5.39419L94.2452 6.95436C93.6835 6.53389 93.1276 6.2296 92.5776 6.04149C92.0276 5.84232 91.4424 5.74274 90.8222 5.74274C89.6285 5.74274 88.704 6.10788 88.0487 6.83817C87.405 7.56846 87.0832 8.61964 87.0832 9.9917C87.0832 11.3748 87.405 12.4315 88.0487 13.1618C88.704 13.8921 89.6285 14.2573 90.8222 14.2573C91.4424 14.2573 92.0276 14.1632 92.5776 13.9751C93.1276 13.7759 93.6835 13.4661 94.2452 13.0456L95 14.6058C94.4968 15.0484 93.8766 15.3914 93.1393 15.6349C92.402 15.8783 91.618 16 90.7871 16Z" fill="black"/>
</svg>
