<svg width="75" height="383" viewBox="0 0 75 383" fill="none" xmlns="http://www.w3.org/2000/svg">
<path fill-rule="evenodd" clip-rule="evenodd" d="M2.7749 275.994C2.7749 282.628 4.19533 288.32 6.98363 293.119C9.77128 297.918 13.7591 301.615 18.9872 304.221C24.1528 306.762 30.2931 308.058 37.4501 308.058C44.603 308.058 50.7761 306.73 56.0097 304.123C61.2425 301.516 65.2309 297.849 68.0176 293.117C70.8051 288.319 72.2251 282.627 72.2251 275.994C72.2251 269.428 70.8057 263.805 68.0204 259.074L68.0164 259.067C65.2282 254.268 61.2393 250.57 56.0097 247.964C50.7761 245.357 44.603 244.029 37.4501 244.029C30.2965 244.029 24.1597 245.357 18.9964 247.961L18.9873 247.966L18.9781 247.97C13.7549 250.509 9.7701 254.171 6.98363 258.968L6.9796 258.974C4.19551 263.703 2.7749 269.359 2.7749 275.994ZM4.58216 294.505C1.50986 289.217 -4.36983e-06 283.03 -4.67739e-06 275.994C-4.98487e-06 268.959 1.50909 262.803 4.58442 257.578C7.65675 252.292 12.0594 248.259 17.7522 245.49C23.3758 242.655 29.9561 241.264 37.4501 241.264C44.9486 241.264 51.5622 242.657 57.2506 245.491C62.942 248.327 67.3439 252.392 70.4162 257.679C73.4899 262.902 75 269.024 75 275.994C75 283.03 73.4901 289.217 70.4179 294.505L70.4138 294.512C67.3401 299.733 62.9381 303.762 57.2506 306.596C51.5622 309.43 44.9486 310.823 37.4501 310.823C29.9569 310.823 23.3781 309.465 17.7555 306.699L17.7494 306.696C12.057 303.859 7.65452 299.793 4.58216 294.505ZM2.77488 25.5631C2.77488 32.2604 4.22706 38.0538 7.08456 42.9893L7.08742 42.9943C9.87838 47.8612 13.8701 51.6246 19.1003 54.2945C24.2644 56.8983 30.3672 58.2248 37.45 58.2248C44.5312 58.2248 50.6694 56.8989 55.9032 54.2927C61.1308 51.6233 65.1564 47.8601 68.0138 42.9919C70.8056 38.0561 72.2251 32.2615 72.2251 25.5631C72.2251 20.9966 71.5155 16.7051 70.1049 12.6799C68.8207 9.01532 67.0706 5.91424 64.8682 3.35373L57.9876 6.49014C60.0574 9.29767 61.6411 12.1057 62.7209 14.9151L62.7255 14.9272L62.7299 14.9393C63.92 18.2181 64.5109 21.6962 64.5109 25.364C64.5109 32.4589 62.1905 38.1195 57.4279 42.1463L57.4232 42.1502L57.4185 42.1542C52.6819 46.0874 45.9554 47.9496 37.45 47.9496C29.008 47.9496 22.3164 46.086 17.5815 42.1542L17.5768 42.1502L17.5721 42.1463C12.8094 38.1195 10.4891 32.4589 10.4891 25.364C10.4891 21.6912 11.1149 18.2087 12.3745 14.9269C13.3981 12.1111 14.9515 9.29953 17.0139 6.49091L10.1318 3.35373C7.92936 5.91425 6.17927 9.01532 4.89503 12.6799C3.48443 16.7051 2.77488 20.9966 2.77488 25.5631ZM4.67968 44.3689C1.54427 38.9523 -1.53135e-05 32.6684 -1.56241e-05 25.5631C-1.58364e-05 20.7062 0.755581 16.1049 2.27528 11.7683C3.79507 7.43152 5.95163 3.74222 8.76286 0.730774L9.44506 -4.12857e-07L21.3549 5.42889L20.2568 6.81103C17.7988 9.90494 16.0508 12.9283 14.9794 15.8798L14.975 15.892L14.9704 15.904C13.8355 18.857 13.264 22.0067 13.264 25.364C13.264 31.8049 15.3377 36.6286 19.3632 40.0343C23.4191 43.3996 29.3793 45.1844 37.45 45.1844C45.5906 45.1844 51.5826 43.3982 55.6368 40.0343C59.6623 36.6286 61.736 31.8049 61.736 25.364C61.736 22.002 61.1961 18.8478 60.1249 15.8921C58.9858 12.9326 57.2014 9.90518 54.7432 6.81103L53.6451 5.42889L65.5549 -2.8655e-06L66.2371 0.730771C69.0483 3.74221 71.2049 7.43152 72.7247 11.7683C74.2444 16.1049 75 20.7062 75 25.5631C75 32.6642 73.4909 38.9446 70.4255 44.3595L70.4203 44.3687L70.415 44.3778C67.2799 49.7233 62.8512 53.8532 57.1628 56.7566L57.1568 56.7596L57.1507 56.7626C51.4639 59.596 44.8842 60.9899 37.45 60.9899C30.0165 60.9899 23.467 59.5962 17.8431 56.7596L17.8372 56.7566C12.1473 53.8524 7.74891 49.7199 4.67968 44.3689ZM0.899069 383L0.899068 371.381L47.259 335.816L0.899067 335.816L0.899066 321.006L74.1009 321.006L74.1009 332.726L27.6477 368.29L74.1009 368.29L74.1009 383L0.899069 383ZM3.67397 380.235L71.326 380.235L71.326 371.055L19.4812 371.055L71.326 331.363L71.326 323.771L3.67397 323.771L3.67397 333.051L55.4123 333.051L3.67397 372.742L3.67397 380.235ZM0.899062 231.059L0.899061 198.618C0.89906 190.476 2.7338 184.062 6.62673 179.602C10.4788 175.045 16.0352 172.847 23.065 172.847C28.7389 172.847 33.5401 174.46 37.3605 177.765C40.2119 180.224 42.2761 183.447 43.5894 187.376C45.128 184.974 47.4501 182.978 50.477 181.375C50.4797 181.373 50.4823 181.372 50.4849 181.37L74.1009 168.514L74.1009 185.608L50.8939 198.044L50.8877 198.047C48.9341 199.081 47.676 200.297 46.9724 201.645C46.2389 203.051 45.8302 204.905 45.8302 207.278L45.8302 215.651L74.1009 215.651L74.1009 231.059L0.899062 231.059ZM3.67396 228.293L71.326 228.293L71.326 218.416L43.0553 218.416L43.0553 207.278C43.0553 204.609 43.5124 202.282 44.5105 200.369C45.538 198.4 47.2759 196.829 49.5831 195.607C49.584 195.606 49.5849 195.606 49.5859 195.605L71.326 183.955L71.326 173.176L51.7939 183.809L51.7868 183.812C47.7737 185.937 45.4598 188.651 44.5842 191.908L41.8817 191.812C40.8612 186.537 38.7208 182.594 35.5432 179.854L35.5416 179.853C32.3028 177.052 28.1799 175.612 23.065 175.612C16.6465 175.612 11.9496 177.592 8.74263 181.391L8.73498 181.4L8.72717 181.409C5.43299 185.178 3.67396 190.838 3.67396 198.618L3.67396 228.293ZM0.899059 161.844L0.899058 134.58C0.899057 122.853 4.06679 113.573 10.5807 106.94C17.0325 100.234 26.056 96.9631 37.45 96.9631C48.8464 96.9631 57.9003 100.236 64.417 106.937C70.9324 113.571 74.1009 122.852 74.1009 134.58L74.1009 161.844L0.899059 161.844ZM3.67396 159.079L71.326 159.079L71.326 134.58C71.326 123.348 68.3017 114.844 62.4317 108.869L62.4266 108.864C56.5563 102.826 48.2957 99.7282 37.45 99.7282C26.6037 99.7282 18.3804 102.826 12.5786 108.859L12.5735 108.864L12.5683 108.869C6.69827 114.844 3.67396 123.348 3.67396 134.58L3.67396 159.079ZM0.899056 86.7968L0.899055 71.1905L74.1009 71.1905L74.1009 86.7968L0.899056 86.7968ZM3.67396 84.0317L71.326 84.0317L71.326 73.9556L3.67396 73.9556L3.67396 84.0317ZM17.4895 292.293C12.662 288.344 10.2893 282.85 10.2893 275.994C10.2893 269.203 12.6632 263.774 17.4905 259.893C22.2266 255.965 28.95 254.105 37.4501 254.105C45.9545 254.105 52.7065 255.967 57.5057 259.89C62.3356 263.771 64.7107 269.201 64.7107 275.994C64.7107 282.85 62.338 288.344 57.5105 292.293L57.5057 292.297L57.5008 292.3C52.702 296.155 45.9523 297.982 37.4501 297.982C28.9497 297.982 22.2272 296.155 17.4913 292.294L17.4895 292.293ZM19.2486 290.154C23.3035 293.46 29.3011 295.217 37.4501 295.217C45.594 295.217 51.6294 293.462 55.7546 290.151C59.8481 286.801 61.9358 282.142 61.9358 275.994C61.9358 269.915 59.8504 265.325 55.7595 262.039L55.7547 262.035L55.7498 262.031C51.6252 258.657 45.5922 256.87 37.4501 256.87C29.306 256.87 23.3123 258.658 19.2581 262.025L19.2493 262.032L19.2405 262.039C15.1495 265.325 13.0642 269.915 13.0642 275.994C13.0642 282.144 15.153 286.803 19.2486 290.154ZM10.8887 218.516L10.8887 200.41C10.8887 195.454 11.7976 191.527 13.8791 188.909C15.9596 186.205 19.2398 184.992 23.3647 184.992C27.4439 184.992 30.7251 186.216 32.9269 188.88L32.9347 188.889L32.9424 188.899C35.0293 191.518 35.9405 195.447 35.9405 200.41L35.9405 218.516L10.8887 218.516ZM13.6636 215.751L33.1656 215.751L33.1656 200.41C33.1656 195.691 32.2816 192.523 30.7769 190.628C29.2489 188.786 26.8715 187.757 23.3647 187.757C19.7693 187.757 17.4584 188.796 16.0755 190.598L16.0678 190.609L16.0599 190.618C14.5505 192.512 13.6636 195.683 13.6636 200.41L13.6636 215.751ZM11.3882 149.003L11.3882 135.376C11.3882 127.094 13.5019 120.63 17.9712 116.249C22.4363 111.871 29.017 109.804 37.45 109.804C45.915 109.804 52.5199 111.871 57.0018 116.247C61.4889 120.628 63.6118 127.093 63.6118 135.376L63.6118 149.003L11.3882 149.003ZM14.1631 146.238L60.8369 146.238L60.8369 135.376C60.8369 127.533 58.8307 121.904 55.0597 118.222C51.2835 114.535 45.5013 112.569 37.45 112.569C29.4335 112.569 23.677 114.534 19.9173 118.22C16.1617 121.902 14.1631 127.532 14.1631 135.376L14.1631 146.238Z" fill="white"/>
</svg>
