<svg width="68" height="68" viewBox="0 0 68 68" fill="none" xmlns="http://www.w3.org/2000/svg">
<path d="M45.2157 32.6706L31.0957 22.4065C30.5775 22.0308 29.8896 21.9743 29.3216 22.2662C28.7491 22.5558 28.3916 23.1441 28.3916 23.78V44.3015C28.3916 44.9441 28.7491 45.5302 29.3216 45.8199C29.5637 45.942 29.8285 46.0031 30.0955 46.0031C30.444 46.0031 30.797 45.8923 31.0957 45.6728L45.2157 35.4177C45.6614 35.0896 45.9217 34.5827 45.9217 34.0441C45.9239 33.4965 45.6569 32.9919 45.2157 32.6706Z" fill="white"/>
<path d="M34.0011 0.00439453C15.2197 0.00439453 0 15.2241 0 34.0055C0 52.7801 15.2197 67.9953 34.0011 67.9953C52.778 67.9953 68 52.7779 68 34.0055C68.0023 15.2241 52.778 0.00439453 34.0011 0.00439453ZM34.0011 62.3224C18.3605 62.3224 5.67968 49.6484 5.67968 34.0055C5.67968 18.3694 18.3605 5.67955 34.0011 5.67955C49.6395 5.67955 62.3181 18.3672 62.3181 34.0055C62.3203 49.6484 49.6395 62.3224 34.0011 62.3224Z" fill="white"/>
</svg>
